<svg xmlns="http://www.w3.org/2000/svg" xmlns:xlink="http://www.w3.org/1999/xlink" width="500" zoomAndPan="magnify" viewBox="0 0 375 374.999991" height="500" preserveAspectRatio="xMidYMid meet" version="1.0"><defs><clipPath id="956eb3b088"><path d="M 113 130.59375 L 262 130.59375 L 262 244.59375 L 113 244.59375 Z M 113 130.59375 " clip-rule="nonzero"/></clipPath></defs><rect x="-37.5" width="450" fill="#ffffff" y="-37.499999" height="449.999989" fill-opacity="1"/><rect x="-37.5" width="450" fill="#ffffff" y="-37.499999" height="449.999989" fill-opacity="1"/><path fill="#ffffff" d="M 221.96875 191.089844 C 213.171875 191.089844 205.988281 183.910156 205.988281 175.113281 C 205.988281 166.316406 213.171875 159.136719 221.96875 159.136719 C 230.761719 159.136719 237.945312 166.316406 237.945312 175.113281 C 237.945312 183.910156 230.761719 191.089844 221.96875 191.089844 Z M 221.96875 162.726562 C 215.144531 162.726562 209.582031 168.292969 209.582031 175.113281 C 209.582031 181.933594 215.144531 187.5 221.96875 187.5 C 228.789062 187.5 234.351562 181.933594 234.351562 175.113281 C 234.351562 168.292969 228.789062 162.726562 221.96875 162.726562 Z M 221.96875 162.726562 " fill-opacity="1" fill-rule="nonzero"/><path fill="#ffffff" d="M 251.226562 213.890625 L 239.199219 192.347656 C 240.457031 191.988281 241.714844 191.449219 242.609375 190.191406 C 243.6875 188.578125 243.6875 186.601562 243.507812 184.808594 C 243.507812 183.730469 243.328125 182.832031 243.507812 182.113281 C 243.6875 181.574219 244.40625 180.679688 244.945312 179.960938 C 246.023438 178.523438 247.457031 177.089844 247.457031 174.933594 C 247.457031 172.78125 246.203125 171.34375 244.945312 169.90625 C 244.40625 169.191406 243.6875 168.472656 243.507812 167.753906 C 243.328125 167.035156 243.328125 166.136719 243.507812 165.0625 C 243.6875 163.265625 243.6875 161.289062 242.609375 159.675781 C 241.355469 158.058594 239.558594 157.519531 237.765625 157.160156 C 236.867188 156.984375 235.789062 156.625 235.25 156.265625 C 234.710938 155.90625 234.175781 155.007812 233.636719 154.109375 C 232.738281 152.675781 231.660156 150.878906 229.6875 150.339844 C 227.890625 149.800781 226.097656 150.519531 224.480469 151.058594 C 223.582031 151.417969 222.503906 151.777344 221.789062 151.777344 C 221.070312 151.777344 220.171875 151.417969 219.09375 151.058594 C 217.480469 150.339844 215.683594 149.621094 213.890625 150.339844 C 211.914062 150.878906 210.835938 152.675781 209.9375 154.109375 C 209.402344 155.007812 208.863281 155.726562 208.324219 156.265625 C 207.785156 156.625 206.707031 156.984375 205.808594 157.160156 C 204.015625 157.519531 202.21875 158.058594 200.964844 159.675781 C 199.886719 161.289062 199.886719 163.265625 200.066406 165.0625 C 200.066406 166.136719 200.246094 167.035156 200.066406 167.753906 C 199.886719 168.292969 199.167969 169.191406 198.628906 169.90625 C 197.554688 171.34375 196.117188 172.78125 196.117188 174.933594 C 196.117188 176.910156 197.375 178.523438 198.628906 179.960938 C 199.167969 180.679688 199.886719 181.394531 200.066406 182.113281 C 200.246094 182.832031 200.246094 183.730469 200.066406 184.808594 C 199.886719 186.601562 199.886719 188.578125 200.964844 190.191406 C 202.039062 191.628906 203.65625 192.167969 205.273438 192.527344 L 193.425781 213.890625 C 193.066406 214.425781 193.066406 215.144531 193.425781 215.683594 C 193.78125 216.222656 194.320312 216.582031 195.039062 216.582031 L 202.757812 216.042969 L 206.347656 222.863281 C 206.707031 223.402344 207.246094 223.761719 207.964844 223.761719 C 208.683594 223.761719 209.222656 223.402344 209.582031 222.863281 L 222.503906 200.066406 L 235.070312 222.683594 C 235.429688 223.222656 235.96875 223.582031 236.6875 223.582031 C 237.40625 223.582031 237.945312 223.222656 238.300781 222.683594 L 241.894531 215.863281 L 249.613281 216.402344 C 250.332031 216.402344 250.867188 216.042969 251.226562 215.503906 C 251.585938 215.144531 251.585938 214.425781 251.226562 213.890625 Z M 203.835938 184.988281 C 203.835938 183.730469 204.015625 182.292969 203.65625 181.039062 C 203.296875 179.78125 202.398438 178.703125 201.503906 177.804688 C 200.785156 176.910156 199.886719 175.832031 199.886719 175.113281 C 199.886719 174.394531 200.785156 173.316406 201.503906 172.421875 C 202.398438 171.34375 203.296875 170.445312 203.65625 169.191406 C 204.015625 167.933594 204.015625 166.496094 203.835938 165.238281 C 203.835938 163.984375 203.65625 162.726562 204.015625 162.1875 C 204.375 161.648438 205.632812 161.289062 206.707031 161.109375 C 207.964844 160.753906 209.402344 160.394531 210.476562 159.675781 C 211.554688 158.957031 212.273438 157.699219 212.992188 156.625 C 213.710938 155.546875 214.246094 154.46875 214.964844 154.289062 C 215.144531 154.289062 215.144531 154.289062 215.324219 154.289062 C 216.042969 154.289062 216.941406 154.648438 217.839844 155.007812 C 219.09375 155.546875 220.351562 156.085938 221.789062 156.085938 C 223.222656 156.085938 224.480469 155.546875 225.738281 155.007812 C 226.8125 154.648438 227.890625 154.109375 228.609375 154.289062 C 229.328125 154.46875 229.867188 155.546875 230.582031 156.625 C 231.300781 157.699219 232.019531 158.957031 233.097656 159.675781 C 234.175781 160.394531 235.609375 160.753906 236.867188 161.109375 C 238.125 161.46875 239.199219 161.648438 239.558594 162.1875 C 239.917969 162.726562 239.917969 163.984375 239.738281 165.238281 C 239.738281 166.496094 239.558594 167.933594 239.917969 169.191406 C 240.277344 170.445312 241.175781 171.523438 242.074219 172.421875 C 242.789062 173.316406 243.6875 174.394531 243.6875 175.113281 C 243.6875 175.832031 242.789062 176.910156 242.074219 177.804688 C 241.175781 178.882812 240.277344 179.78125 239.917969 181.039062 C 239.558594 182.292969 239.558594 183.730469 239.738281 184.988281 C 239.738281 186.242188 239.917969 187.5 239.558594 188.039062 C 239.199219 188.578125 237.945312 188.9375 236.867188 189.117188 C 235.609375 189.476562 234.175781 189.832031 233.097656 190.550781 C 232.019531 191.269531 231.300781 192.527344 230.582031 193.601562 C 229.867188 194.679688 229.328125 195.757812 228.609375 195.9375 C 228.070312 196.117188 226.8125 195.578125 225.738281 195.21875 C 224.839844 194.859375 223.761719 194.5 222.863281 194.320312 C 222.503906 194.320312 222.144531 194.140625 221.789062 194.140625 C 220.351562 194.140625 219.09375 194.679688 217.839844 195.21875 C 216.761719 195.578125 215.683594 196.117188 214.964844 195.9375 C 214.246094 195.757812 213.710938 194.679688 212.992188 193.601562 C 212.273438 192.527344 211.554688 191.269531 210.476562 190.550781 C 209.402344 189.832031 207.964844 189.476562 206.707031 189.117188 C 205.453125 188.757812 204.375 188.578125 204.015625 188.039062 C 203.65625 187.5 203.835938 186.242188 203.835938 184.988281 Z M 208.324219 218.195312 L 205.632812 213.351562 C 205.273438 212.8125 204.554688 212.453125 204.015625 212.453125 L 198.449219 212.632812 L 208.863281 193.78125 C 209.222656 194.140625 209.761719 194.859375 210.117188 195.578125 C 211.015625 197.015625 212.09375 198.808594 214.066406 199.347656 C 214.605469 199.527344 214.964844 199.527344 215.503906 199.527344 C 216.761719 199.527344 218.195312 198.988281 219.273438 198.449219 Z M 240.996094 212.273438 C 240.277344 212.273438 239.558594 212.632812 239.378906 213.171875 L 236.6875 218.015625 L 226.273438 199.167969 C 227.351562 199.527344 228.609375 199.707031 229.867188 199.347656 C 231.839844 198.808594 232.917969 197.015625 233.816406 195.578125 C 234.351562 194.679688 234.890625 193.960938 235.429688 193.425781 C 235.609375 193.246094 235.789062 193.246094 235.96875 193.246094 L 246.738281 212.632812 Z M 240.996094 212.273438 " fill-opacity="1" fill-rule="nonzero"/><g clip-path="url(#956eb3b088)"><path fill="#ffffff" d="M 254.28125 244.40625 L 120.71875 244.40625 C 116.410156 244.40625 113 240.996094 113 236.6875 L 113 138.3125 C 113 134.003906 116.410156 130.59375 120.71875 130.59375 L 254.28125 130.59375 C 258.589844 130.59375 262 134.003906 262 138.3125 L 262 236.6875 C 262 240.816406 258.410156 244.40625 254.28125 244.40625 Z M 120.71875 134.183594 C 118.386719 134.183594 116.589844 135.980469 116.589844 138.3125 L 116.589844 236.6875 C 116.589844 239.019531 118.386719 240.816406 120.71875 240.816406 L 254.28125 240.816406 C 256.613281 240.816406 258.410156 239.019531 258.410156 236.6875 L 258.410156 138.3125 C 258.410156 135.980469 256.613281 134.183594 254.28125 134.183594 Z M 120.71875 134.183594 " fill-opacity="1" fill-rule="nonzero"/></g><path fill="#ffffff" d="M 247.996094 236.867188 L 127.542969 236.867188 C 123.773438 236.867188 120.71875 233.816406 120.71875 230.046875 L 120.71875 144.953125 C 120.71875 141.183594 123.773438 138.132812 127.542969 138.132812 L 247.996094 138.132812 C 251.765625 138.132812 254.816406 141.183594 254.816406 144.953125 L 254.816406 230.046875 C 254.816406 233.816406 251.765625 236.867188 247.996094 236.867188 Z M 127.542969 139.929688 C 124.847656 139.929688 122.515625 142.261719 122.515625 144.953125 L 122.515625 230.046875 C 122.515625 232.738281 124.847656 235.070312 127.542969 235.070312 L 247.996094 235.070312 C 250.6875 235.070312 253.023438 232.738281 253.023438 230.046875 L 253.023438 144.953125 C 253.023438 142.261719 250.6875 139.929688 247.996094 139.929688 Z M 127.542969 139.929688 " fill-opacity="1" fill-rule="nonzero"/><path fill="#ffffff" d="M 191.988281 157.339844 L 133.824219 157.339844 C 132.746094 157.339844 132.03125 156.625 132.03125 155.546875 C 132.03125 154.46875 132.746094 153.75 133.824219 153.75 L 191.808594 153.75 C 192.886719 153.75 193.601562 154.46875 193.601562 155.546875 C 193.601562 156.625 192.886719 157.339844 191.988281 157.339844 Z M 191.988281 157.339844 " fill-opacity="1" fill-rule="nonzero"/><path fill="#ffffff" d="M 185.347656 202.21875 L 133.824219 202.21875 C 132.746094 202.21875 132.03125 201.503906 132.03125 200.425781 C 132.03125 199.347656 132.746094 198.628906 133.824219 198.628906 L 185.347656 198.628906 C 186.421875 198.628906 187.140625 199.347656 187.140625 200.425781 C 187.140625 201.503906 186.421875 202.21875 185.347656 202.21875 Z M 185.347656 202.21875 " fill-opacity="1" fill-rule="nonzero"/><path fill="#ffffff" d="M 185.347656 181.574219 L 133.824219 181.574219 C 132.746094 181.574219 132.03125 180.859375 132.03125 179.78125 C 132.03125 178.703125 132.746094 177.984375 133.824219 177.984375 L 185.347656 177.984375 C 186.421875 177.984375 187.140625 178.703125 187.140625 179.78125 C 187.140625 180.859375 186.421875 181.574219 185.347656 181.574219 Z M 185.347656 181.574219 " fill-opacity="1" fill-rule="nonzero"/><path fill="#ffffff" d="M 161.109375 215.863281 L 133.824219 215.863281 C 132.746094 215.863281 132.03125 215.144531 132.03125 214.066406 C 132.03125 212.992188 132.746094 212.273438 133.824219 212.273438 L 161.109375 212.273438 C 162.1875 212.273438 162.90625 212.992188 162.90625 214.066406 C 162.90625 215.144531 162.1875 215.863281 161.109375 215.863281 Z M 161.109375 215.863281 " fill-opacity="1" fill-rule="nonzero"/></svg>