<svg width="24" height="25" viewBox="0 0 24 25" fill="none" xmlns="http://www.w3.org/2000/svg">
<g clip-path="url(#clip0_3_866)">
<path d="M9.78003 9.81823C11.9892 9.81823 13.78 8.04136 13.78 5.84948C13.78 3.6576 11.9892 1.88073 9.78003 1.88073C7.57089 1.88073 5.78003 3.6576 5.78003 5.84948C5.78003 8.04136 7.57089 9.81823 9.78003 9.81823Z" fill="white"/>
<path d="M10.96 21.407C10.7397 21.1908 10.596 20.9096 10.5503 20.6055C10.5046 20.3014 10.5595 19.9908 10.7067 19.7203L11.06 19.0588L10.3334 18.8405C10.037 18.7485 9.77907 18.5631 9.5986 18.3124C9.41812 18.0617 9.325 17.7594 9.33337 17.4515V16.0955C9.33281 15.7889 9.43168 15.4902 9.61536 15.2436C9.79904 14.9971 10.0578 14.8157 10.3534 14.7262L11.08 14.508L10.7334 13.8465C10.5905 13.5797 10.5361 13.2749 10.578 12.9756C10.6199 12.6763 10.7559 12.3977 10.9667 12.1796C10.4538 12.1129 9.93729 12.0776 9.42004 12.0738C7.89225 12.0381 6.37536 12.3374 4.97753 12.9502C3.57971 13.5631 2.33541 14.4744 1.33337 15.6192V20.7455C1.33337 20.9209 1.40361 21.0892 1.52864 21.2132C1.65366 21.3373 1.82323 21.407 2.00004 21.407H10.96Z" fill="white"/>
<path d="M22.4666 15.8772L21.1333 15.4803C21.0409 15.1536 20.9112 14.8385 20.7466 14.541L21.4133 13.3107C21.4391 13.2651 21.4485 13.2121 21.44 13.1604C21.4315 13.1088 21.4057 13.0615 21.3666 13.0263L20.4 12.0606C20.3627 12.0246 20.3153 12.0009 20.264 11.9926C20.2127 11.9843 20.1601 11.9919 20.1133 12.0143L18.88 12.6757C18.5764 12.5121 18.257 12.3791 17.9266 12.2789L17.52 10.9559C17.5021 10.9072 17.4694 10.8651 17.4264 10.8355C17.3834 10.8059 17.3323 10.7902 17.28 10.7906H15.8933C15.8413 10.792 15.791 10.8093 15.7493 10.8401C15.7076 10.8708 15.6764 10.9136 15.66 10.9626L15.26 12.2855C14.9232 12.3827 14.5988 12.5181 14.2933 12.689L13.0866 12.0275C13.0397 12.0028 12.9862 11.9933 12.9335 12.0004C12.8809 12.0075 12.8318 12.0309 12.7933 12.0672L11.8133 13.0197C11.7747 13.0566 11.7493 13.1049 11.7409 13.1575C11.7324 13.21 11.7415 13.2638 11.7666 13.3107L12.4333 14.5146C12.2547 14.8134 12.1094 15.1305 12 15.4605L10.6666 15.864C10.6162 15.8784 10.5719 15.9089 10.5406 15.9507C10.5093 15.9925 10.4927 16.0434 10.4933 16.0955V17.4515C10.4927 17.5035 10.5093 17.5544 10.5406 17.5962C10.5719 17.638 10.6162 17.6685 10.6666 17.683L12 18.0865C12.0999 18.4104 12.234 18.723 12.4 19.0191L11.7333 20.2759C11.7082 20.3228 11.6991 20.3766 11.7075 20.4292C11.716 20.4817 11.7414 20.53 11.78 20.5669L12.7733 21.526C12.8118 21.5623 12.8609 21.5857 12.9135 21.5928C12.9662 21.5999 13.0197 21.5905 13.0666 21.5657L14.3133 20.9043C14.61 21.0626 14.9229 21.189 15.2466 21.2813L15.6466 22.6373C15.6634 22.6873 15.6956 22.7308 15.7387 22.7617C15.7818 22.7925 15.8335 22.8092 15.8866 22.8093H17.2533C17.3053 22.8078 17.3556 22.7906 17.3973 22.7598C17.439 22.729 17.4702 22.6863 17.4866 22.6373L17.8866 21.2813C18.2065 21.1901 18.5151 21.0637 18.8066 20.9043L20.0666 21.5657C20.1135 21.5905 20.1671 21.5999 20.2198 21.5928C20.2724 21.5857 20.3214 21.5623 20.36 21.526L21.3333 20.5669C21.3699 20.5287 21.3934 20.48 21.4006 20.4278C21.4078 20.3756 21.3982 20.3224 21.3733 20.2759L20.7066 19.0323C20.8661 18.7426 20.9935 18.4365 21.0866 18.1195L22.42 17.716C22.4701 17.7001 22.5141 17.6694 22.5462 17.628C22.5784 17.5867 22.5971 17.5367 22.6 17.4845V16.1153C22.6016 16.0674 22.59 16.0199 22.5666 15.9779C22.5431 15.936 22.5085 15.9012 22.4666 15.8772ZM16.58 18.9993C16.1393 19.0006 15.7081 18.8721 15.3411 18.6302C14.974 18.3882 14.6876 18.0436 14.5181 17.64C14.3485 17.2365 14.3034 16.7921 14.3886 16.3631C14.4738 15.9341 14.6853 15.5398 14.9965 15.2302C15.3076 14.9205 15.7043 14.7095 16.1364 14.6237C16.5686 14.5379 17.0166 14.5813 17.4239 14.7483C17.8311 14.9153 18.1793 15.1985 18.4242 15.5619C18.6692 15.9254 18.8 16.3528 18.8 16.79C18.8 17.3748 18.5663 17.9357 18.1502 18.3499C17.734 18.764 17.1694 18.9975 16.58 18.9993Z" fill="white"/>
</g>
<defs>
<clipPath id="clip0_3_866">
<rect width="24" height="23.8125" fill="white" transform="translate(0 0.359375)"/>
</clipPath>
</defs>
</svg>
