<svg width="30" height="24" viewBox="0 0 30 24" fill="none" xmlns="http://www.w3.org/2000/svg">
<path d="M4.5 10.4805C6.15469 10.4805 7.5 9.14567 7.5 7.50391C7.5 5.86215 6.15469 4.52734 4.5 4.52734C2.84531 4.52734 1.5 5.86215 1.5 7.50391C1.5 9.14567 2.84531 10.4805 4.5 10.4805ZM25.5 10.4805C27.1547 10.4805 28.5 9.14567 28.5 7.50391C28.5 5.86215 27.1547 4.52734 25.5 4.52734C23.8453 4.52734 22.5 5.86215 22.5 7.50391C22.5 9.14567 23.8453 10.4805 25.5 10.4805ZM27 11.9688H24C23.175 11.9688 22.4297 12.299 21.8859 12.8338C23.775 13.8617 25.1156 15.7174 25.4062 17.9219H28.5C29.3297 17.9219 30 17.2568 30 16.4336V14.9453C30 13.3036 28.6547 11.9688 27 11.9688ZM15 11.9688C17.9016 11.9688 20.25 9.63866 20.25 6.75977C20.25 3.88087 17.9016 1.55078 15 1.55078C12.0984 1.55078 9.75 3.88087 9.75 6.75977C9.75 9.63866 12.0984 11.9688 15 11.9688ZM18.6 13.457H18.2109C17.2359 13.9221 16.1531 14.2012 15 14.2012C13.8469 14.2012 12.7688 13.9221 11.7891 13.457H11.4C8.41875 13.457 6 15.8569 6 18.8148V20.1543C6 21.3868 7.00781 22.3867 8.25 22.3867H21.75C22.9922 22.3867 24 21.3868 24 20.1543V18.8148C24 15.8569 21.5812 13.457 18.6 13.457ZM8.11406 12.8338C7.57031 12.299 6.825 11.9688 6 11.9688H3C1.34531 11.9688 0 13.3036 0 14.9453V16.4336C0 17.2568 0.670312 17.9219 1.5 17.9219H4.58906C4.88438 15.7174 6.225 13.8617 8.11406 12.8338Z" fill="white"/>
</svg>
