<svg width="24" height="25" viewBox="0 0 24 25" fill="none" xmlns="http://www.w3.org/2000/svg">
<path d="M19 19.0703H5V8.15625H19M16 1.21094V3.19531H8V1.21094H6V3.19531H5C3.9 3.19531 3 4.08828 3 5.17969V19.0703C3 19.5966 3.21071 20.1013 3.58579 20.4735C3.96086 20.8456 4.46957 21.0547 5 21.0547H19C20.11 21.0547 21 20.1716 21 19.0703V5.17969C21 4.6534 20.7893 4.14866 20.4142 3.77652C20.0391 3.40438 19.5304 3.19531 19 3.19531H18V1.21094M10.88 12.125H7.27L10.19 14.2185L9.08 17.6416L12 15.5282L14.92 17.6416L13.8 14.2284L16.72 12.125H13.12L12 8.71188L10.88 12.125Z" fill="white"/>
</svg>
