<svg width="27" height="27" viewBox="0 0 27 27" fill="none" xmlns="http://www.w3.org/2000/svg">
<path d="M9 6.19466H6.75C6.15326 6.19466 5.58097 6.42115 5.15901 6.8243C4.73705 7.22746 4.5 7.77425 4.5 8.3444V21.2428C4.5 21.813 4.73705 22.3598 5.15901 22.7629C5.58097 23.1661 6.15326 23.3926 6.75 23.3926H13.1591M20.25 15.8685V20.168H24.75M20.25 12.6439V8.3444C20.25 7.77425 20.0129 7.22746 19.591 6.8243C19.169 6.42115 18.5967 6.19466 18 6.19466H15.75" stroke="white" stroke-width="2" stroke-linecap="round" stroke-linejoin="round"/>
<path d="M9 12.6439H13.5M9 16.9434H12.375M9 6.19466C9 5.62451 9.23705 5.07772 9.65901 4.67457C10.081 4.27141 10.6533 4.04492 11.25 4.04492H13.5C14.0967 4.04492 14.669 4.27141 15.091 4.67457C15.5129 5.07772 15.75 5.62451 15.75 6.19466C15.75 6.76481 15.5129 7.3116 15.091 7.71476C14.669 8.11791 14.0967 8.3444 13.5 8.3444H11.25C10.6533 8.3444 10.081 8.11791 9.65901 7.71476C9.23705 7.3116 9 6.76481 9 6.19466ZM15.75 20.168C15.75 21.3083 16.2241 22.4018 17.068 23.2082C17.9119 24.0145 19.0565 24.4674 20.25 24.4674C21.4435 24.4674 22.5881 24.0145 23.432 23.2082C24.2759 22.4018 24.75 21.3083 24.75 20.168C24.75 19.0277 24.2759 17.9341 23.432 17.1278C22.5881 16.3215 21.4435 15.8685 20.25 15.8685C19.0565 15.8685 17.9119 16.3215 17.068 17.1278C16.2241 17.9341 15.75 19.0277 15.75 20.168Z" stroke="white" stroke-width="2" stroke-linecap="round" stroke-linejoin="round"/>
</svg>
