<svg width="22" height="23" viewBox="0 0 22 23" fill="none" xmlns="http://www.w3.org/2000/svg">
<path fill-rule="evenodd" clip-rule="evenodd" d="M19.4888 14.6278H11.407C12.324 14.5467 13.1743 14.1183 13.7812 13.4314C14.3881 12.7445 14.7049 11.852 14.6659 10.9394C14.6268 10.0268 14.2349 9.16414 13.5715 8.53076C12.9081 7.89738 12.0243 7.54194 11.1037 7.5383H8.46367C8.85836 7.01173 9.14065 6.41082 9.2933 5.77231C9.44594 5.1338 9.46573 4.47111 9.35144 3.82476C9.23716 3.1784 8.9912 2.56197 8.62862 2.01314C8.26603 1.46432 7.79444 0.994636 7.24267 0.632813L19.4888 0.632812C20.0509 0.633639 20.5897 0.855764 20.9869 1.25041C21.384 1.64506 21.6071 2.17997 21.6071 2.73767V12.5276C21.6071 13.6876 20.658 14.6293 19.4888 14.6293V14.6278ZM4.55395 7.54141C4.94089 7.55035 5.32572 7.48244 5.68584 7.3417C6.04595 7.20095 6.37407 6.9902 6.65091 6.72184C6.92776 6.45347 7.14774 6.1329 7.29794 5.77897C7.44813 5.42505 7.5255 5.0449 7.5255 4.66088C7.5255 4.27686 7.44813 3.89672 7.29794 3.54279C7.14774 3.18886 6.92776 2.86829 6.65091 2.59993C6.37407 2.33156 6.04595 2.12081 5.68584 1.98006C5.32572 1.83932 4.94089 1.77142 4.55395 1.78035C3.79566 1.79785 3.07438 2.10902 2.54432 2.64732C2.01426 3.18562 1.7175 3.90832 1.7175 4.66088C1.7175 5.41345 2.01426 6.13614 2.54432 6.67444C3.07438 7.21274 3.79566 7.52391 4.55395 7.54141ZM12.7175 11.09C12.7175 10.2044 11.9947 9.48724 11.1037 9.48724H4.55552C4.0086 9.48703 3.467 9.59376 2.96167 9.80133C2.45635 10.0089 1.9972 10.3132 1.61047 10.6969C1.22374 11.0807 0.917004 11.5362 0.707802 12.0376C0.498601 12.539 0.391029 13.0763 0.391236 13.619V15.4978C0.391236 16.3272 1.07009 16.9992 1.90609 16.9992H2.17638L2.61952 21.0686C2.66096 21.4507 2.84316 21.8041 3.13115 22.0611C3.41914 22.3181 3.79264 22.4605 4.17995 22.4609H4.96881C5.34789 22.4608 5.71414 22.3247 6.00004 22.0777C6.28593 21.8307 6.47221 21.4895 6.52452 21.1169L7.70781 12.6913H11.1021C11.9931 12.6913 12.716 11.9741 12.716 11.09H12.7175Z" fill="white"/>
</svg>
